<?xml version="1.0" encoding="UTF-8" standalone="no"?>
<!-- Created with Inkscape (http://www.inkscape.org/) -->

<svg
   width="1024"
   height="1024"
   viewBox="0 0 270.93333 270.93333"
   version="1.1"
   id="svg1"
   inkscape:version="1.3 (0e150ed, 2023-07-21)"
   sodipodi:docname="logo.svg"
   inkscape:export-filename="logo.png"
   inkscape:export-xdpi="96"
   inkscape:export-ydpi="96"
   xmlns:inkscape="http://www.inkscape.org/namespaces/inkscape"
   xmlns:sodipodi="http://sodipodi.sourceforge.net/DTD/sodipodi-0.dtd"
   xmlns="http://www.w3.org/2000/svg"
   xmlns:svg="http://www.w3.org/2000/svg">
  <sodipodi:namedview
     id="namedview1"
     pagecolor="#ffffff"
     bordercolor="#000000"
     borderopacity="0.25"
     inkscape:showpageshadow="2"
     inkscape:pageopacity="0.0"
     inkscape:pagecheckerboard="0"
     inkscape:deskcolor="#d1d1d1"
     inkscape:document-units="mm"
     inkscape:zoom="0.56034652"
     inkscape:cx="608.55201"
     inkscape:cy="520.21381"
     inkscape:window-width="1400"
     inkscape:window-height="775"
     inkscape:window-x="26"
     inkscape:window-y="23"
     inkscape:window-maximized="0"
     inkscape:current-layer="layer1" />
  <defs
     id="defs1" />
  <g
     inkscape:label="Layer 1"
     inkscape:groupmode="layer"
     id="layer1">
    <path
       d="m 142.52222,82.126706 c 0,-21.166649 5.36221,-36.124414 16.08665,-46.566628 l -10.15999,-9.595547 c -0.56445,0.564444 -2.54,2.539998 -3.10444,3.668886 -0.84667,0.846666 -2.25778,2.257776 -2.82222,3.386664 -8.46666,10.724435 -12.69999,24.835534 -12.69999,44.026629 v 13.264433 l -6.49111,-5.644439 C 115.71113,77.893376 106.68002,73.095602 93.415591,72.248936 H 84.66671 C 51.082294,74.506712 28.786757,103.29335 28.786757,136.03111 v 5.92666 c 0,24.83553 9.595547,54.75106 26.528866,72.53105 17.779986,18.62665 43.744408,30.47997 78.739937,30.47997 h 8.18443 c 2.54,0 4.79778,-0.28222 7.33778,-0.56444 42.61552,-3.95111 72.81327,-25.96443 84.94881,-60.95995 6.20889,-15.80443 7.62,-27.93998 7.62,-44.59108 v -5.92666 C 239.32436,106.11557 228.3177,86.360036 207.7155,77.328932 c -6.20889,-2.82222 -14.39333,-5.362218 -23.14221,-5.362218 h -2.54 c -14.11109,0 -25.96442,5.079996 -33.01997,12.69999 l -6.4911,7.337771 z m -8.18444,148.448764 c -50.517736,0 -79.868822,-25.6822 -88.335482,-68.29772 -1.41111,-6.49111 -2.257776,-13.26443 -2.257776,-20.88443 V 134.62 C 45.720076,107.80891 59.831175,89.182256 86.642264,86.360036 h 5.644439 c 22.577757,0 29.351087,17.779984 39.228857,30.762194 1.41111,1.97556 2.82222,4.51555 3.95111,6.77333 l 5.36221,-6.77333 c 10.72444,-13.82888 16.6511,-30.762194 41.20441,-30.762194 h 3.95111 c 24.55332,1.693332 44.02663,22.859984 44.02663,47.413294 v 7.61999 c 0,25.6822 -10.72443,54.18662 -30.76219,70.5555 -14.1111,11.00666 -34.14886,18.62665 -57.85551,18.62665 z m 1.69342,-42.05084 29.35108,-36.40664 -11.00665,-8.74888 -18.34443,22.85998 -18.62665,-23.1422 -11.00666,9.0311 z"
       id="text1"
       style="font-size:282.222px;font-family:'linja pona 4.9';-inkscape-font-specification:'linja pona 4.9, ';stroke-width:0.264583;fill:#94e044;fill-opacity:1"
       aria-label="kili+lili" />
  </g>
</svg>
