<?xml version="1.0" encoding="UTF-8" standalone="no"?>
<!-- Created with Inkscape (http://www.inkscape.org/) -->

<svg
   width="512"
   height="512"
   viewBox="0 0 135.46666 135.46667"
   version="1.1"
   id="svg1"
   sodipodi:docname="before.svg"
   inkscape:version="1.3 (0e150ed, 2023-07-21)"
   xmlns:inkscape="http://www.inkscape.org/namespaces/inkscape"
   xmlns:sodipodi="http://sodipodi.sourceforge.net/DTD/sodipodi-0.dtd"
   xmlns="http://www.w3.org/2000/svg"
   xmlns:svg="http://www.w3.org/2000/svg">
  <sodipodi:namedview
     id="namedview1"
     pagecolor="#ffffff"
     bordercolor="#000000"
     borderopacity="0.25"
     inkscape:showpageshadow="2"
     inkscape:pageopacity="0.0"
     inkscape:pagecheckerboard="0"
     inkscape:deskcolor="#d1d1d1"
     inkscape:document-units="px"
     showguides="true"
     inkscape:zoom="0.7462761"
     inkscape:cx="231.14769"
     inkscape:cy="193.62807"
     inkscape:window-width="1400"
     inkscape:window-height="775"
     inkscape:window-x="26"
     inkscape:window-y="23"
     inkscape:window-maximized="0"
     inkscape:current-layer="svg1">
    <sodipodi:guide
       position="0,135.46666"
       orientation="127.99999,0"
       id="guide64"
       inkscape:locked="false" />
    <sodipodi:guide
       position="0,101.6"
       orientation="0,127.99999"
       id="guide65"
       inkscape:locked="false" />
    <sodipodi:guide
       position="33.866665,101.6"
       orientation="-127.99999,0"
       id="guide66"
       inkscape:locked="false" />
    <sodipodi:guide
       position="33.866665,135.46666"
       orientation="0,-127.99999"
       id="guide67"
       inkscape:locked="false" />
    <sodipodi:guide
       position="33.866661,101.6"
       orientation="127.99999,0"
       id="guide68"
       inkscape:locked="false" />
    <sodipodi:guide
       position="33.866661,67.733335"
       orientation="0,127.99998"
       id="guide69"
       inkscape:locked="false" />
    <sodipodi:guide
       position="67.733322,67.733335"
       orientation="-127.99999,0"
       id="guide70"
       inkscape:locked="false" />
    <sodipodi:guide
       position="67.733322,101.6"
       orientation="0,-127.99998"
       id="guide71"
       inkscape:locked="false" />
    <sodipodi:guide
       position="67.73333,67.733335"
       orientation="127.99998,0"
       id="guide72"
       inkscape:locked="false" />
    <sodipodi:guide
       position="67.73333,33.866674"
       orientation="0,127.99998"
       id="guide73"
       inkscape:locked="false" />
    <sodipodi:guide
       position="101.59999,33.866674"
       orientation="-127.99998,0"
       id="guide74"
       inkscape:locked="false" />
    <sodipodi:guide
       position="101.59999,67.733335"
       orientation="0,-127.99998"
       id="guide75"
       inkscape:locked="false" />
    <sodipodi:guide
       position="101.59999,33.866674"
       orientation="128.00001,0"
       id="guide76"
       inkscape:locked="false" />
    <sodipodi:guide
       position="101.59999,5.4541014e-06"
       orientation="0,128.00001"
       id="guide77"
       inkscape:locked="false" />
    <sodipodi:guide
       position="135.46666,5.4541014e-06"
       orientation="-128.00001,0"
       id="guide78"
       inkscape:locked="false" />
    <sodipodi:guide
       position="135.46666,33.866674"
       orientation="0,-128.00001"
       id="guide79"
       inkscape:locked="false" />
    <sodipodi:guide
       position="0,118.53333"
       orientation="0,1"
       id="guide81"
       inkscape:locked="false"
       inkscape:label=""
       inkscape:color="rgb(0,134,229)" />
    <sodipodi:guide
       position="0,84.666666"
       orientation="0,1"
       id="guide82"
       inkscape:locked="false"
       inkscape:label=""
       inkscape:color="rgb(0,134,229)" />
    <sodipodi:guide
       position="0,50.799999"
       orientation="0,1"
       id="guide83"
       inkscape:locked="false"
       inkscape:label=""
       inkscape:color="rgb(0,134,229)" />
    <sodipodi:guide
       position="0,16.933333"
       orientation="0,1"
       id="guide84"
       inkscape:locked="false"
       inkscape:label=""
       inkscape:color="rgb(0,134,229)" />
    <sodipodi:guide
       position="16.933333,135.46666"
       orientation="-1,0"
       id="guide85"
       inkscape:locked="false"
       inkscape:label=""
       inkscape:color="rgb(0,134,229)" />
    <sodipodi:guide
       position="50.799999,135.46666"
       orientation="-1,0"
       id="guide86"
       inkscape:locked="false"
       inkscape:label=""
       inkscape:color="rgb(0,134,229)" />
    <sodipodi:guide
       position="84.666666,135.46666"
       orientation="-1,0"
       id="guide87"
       inkscape:locked="false"
       inkscape:label=""
       inkscape:color="rgb(0,134,229)" />
    <sodipodi:guide
       position="118.53333,135.46666"
       orientation="-1,0"
       id="guide88"
       inkscape:locked="false"
       inkscape:label=""
       inkscape:color="rgb(0,134,229)" />
  </sodipodi:namedview>
  <defs
     id="defs1" />
  <g
     inkscape:groupmode="layer"
     id="layer2"
     inkscape:label="diagram" />
  <path
     d="m 67.959108,7.295419 c 2.229562,0 3.866455,0.5080013 4.882458,1.4675595 0.141111,0.1693338 0.310445,0.3386676 0.479779,0.5080014 0.169334,0.1975561 0.395112,0.4233345 0.62089,0.6773352 0.225779,0.2540009 0.338668,0.5644459 0.338668,0.9595579 -0.225778,0.677335 -0.649113,1.072448 -1.270003,1.128892 -0.282223,0 -0.536224,-0.08467 -0.705558,-0.282223 L 71.853785,11.302985 C 71.740896,11.190096 71.54334,11.048985 71.317562,10.851429 71.091783,10.653873 70.781338,10.456317 70.44267,10.25876 70.07578,10.089427 69.737113,9.9483151 69.426668,9.8354259 69.116222,9.750759 68.833999,9.6943144 68.608221,9.6943144 c -0.36689,0 -0.705558,0.056445 -1.044225,0.1411115 -0.338668,0.084667 -0.677335,0.1975561 -1.016003,0.3668901 -0.338668,0.169334 -0.677335,0.36689 -0.959558,0.592668 -0.310445,0.225778 -0.564446,0.508001 -0.762002,0.790224 -0.846669,1.524005 -1.270004,3.330232 -1.270004,5.418682 0,0.959558 0.197556,2.060228 0.592669,3.330231 0.395112,1.270004 1.100669,2.20134 2.08845,2.82223 0.846669,0.564446 1.749782,0.818447 2.652896,0.818447 0.112889,0 0.225778,0 0.338667,0 0.11289,0 0.310446,-0.05645 0.649113,-0.112889 0.310446,-0.05645 0.705558,-0.254001 1.185337,-0.592668 0.36689,-0.225779 0.649113,-0.592669 0.818447,-1.10067 0.169333,-0.508002 0.282223,-0.903114 0.282223,-1.213559 0,-0.282223 -0.02822,-0.479779 -0.02822,-0.592668 h -2.794007 c -0.36689,0 -0.592669,-0.395113 -0.649113,-1.185337 0,-0.395112 0.02822,-0.705557 0.112889,-0.931336 0.05644,-0.225778 0.254001,-0.338667 0.536224,-0.338667 h 4.459123 c 0.338668,0 0.592668,0.282223 0.705557,0.846669 0.05644,0.338667 0.05644,0.931335 0.05644,1.778004 -0.05644,0.846669 -0.112889,1.495782 -0.169334,1.947339 -0.08467,0.451557 -0.169334,0.762002 -0.254,0.903114 -0.225779,0.508001 -0.423335,0.931336 -0.620891,1.270003 -0.225778,0.338668 -0.592668,0.649113 -1.128892,0.959558 -0.451557,0.310446 -0.903114,0.508002 -1.326448,0.620891 -0.423335,0.112889 -0.818447,0.169334 -1.185337,0.197556 -0.395112,0.02822 -0.818446,0.05645 -1.298225,0.05645 -2.088451,0 -3.894678,-0.790225 -5.39046,-2.427118 -0.677335,-0.790224 -1.213559,-1.83445 -1.608671,-3.104453 -0.395112,-1.241781 -0.592668,-2.511785 -0.592668,-3.753566 0,-1.128892 0.141111,-2.342451 0.423334,-3.612454 0.282223,-1.270004 0.677336,-2.342451 1.241782,-3.217342 0.564446,-0.903114 1.326448,-1.6651161 2.342451,-2.2295621 1.016002,-0.564446 2.003783,-0.8466689 2.963341,-0.8466689 z"
     id="text81"
     style="font-size:28.2223px;font-family:'APL386 Unicode';-inkscape-font-specification:'APL386 Unicode';fill:#1a1a1a;stroke-width:0.264583"
     aria-label="G" />
  <path
     d="m 31.11499,43.829091 v 5.164681 h 4.261568 c 0.338667,0 0.62089,0.112889 0.846669,0.36689 0.225778,0.282223 0.338667,0.592668 0.338667,0.931336 0,0.762002 -0.395112,1.157114 -1.185336,1.157114 H 31.11499 c 0.02822,2.596452 0.02822,4.600235 0.02822,5.954905 -0.02822,1.382893 -0.02822,2.088451 -0.02822,2.116673 0,0.508001 -0.141111,0.818447 -0.36689,0.98778 -0.225778,0.169334 -0.536223,0.254001 -0.931335,0.254001 -0.395113,0 -0.677336,-0.112889 -0.874892,-0.395112 C 28.744317,60.085136 28.65965,59.802913 28.65965,59.464245 V 43.829091 c 0,-1.636893 0.790225,-2.45534 2.370673,-2.45534 h 6.604019 c 0.366889,0 0.677335,0.141112 0.931335,0.36689 0.254001,0.254001 0.395113,0.564446 0.395113,0.903114 0,0.790224 -0.451557,1.185336 -1.326448,1.185336 z"
     id="text81-5"
     style="font-size:28.2223px;font-family:'APL386 Unicode';-inkscape-font-specification:'APL386 Unicode';fill:#1a1a1a;stroke-width:0.264583"
     aria-label="F" />
  <text
     xml:space="preserve"
     style="font-size:28.2223px;font-family:'APL386 Unicode';-inkscape-font-specification:'APL386 Unicode';fill:none;fill-opacity:1;stroke:#000000;stroke-width:2.11667;stroke-dasharray:none;stroke-opacity:1"
     x="152.64636"
     y="92.074966"
     id="text88"><tspan
       sodipodi:role="line"
       id="tspan88"
       style="stroke-width:2.11667" /></text>
  <path
     style="fill:none;fill-opacity:1;stroke:#000000;stroke-width:2.11667;stroke-dasharray:none;stroke-opacity:1"
     d="M 33.866665,84.666666 V 67.73333"
     id="path88" />
  <path
     style="fill:none;fill-opacity:1;stroke:#000000;stroke-width:2.11667;stroke-dasharray:none;stroke-opacity:1"
     d="m 84.666666,16.933335 c 0,0 16.933334,-3e-6 16.933334,33.866664 0,33.866666 0,33.866666 0,33.866666"
     id="path89" />
  <path
     style="fill:none;fill-opacity:1;stroke:#000000;stroke-width:2.11667;stroke-dasharray:none;stroke-opacity:1"
     d="m 50.799999,16.933335 c 0,0 -16.933324,-4e-6 -16.933324,16.933331"
     id="path90" />
  <path
     d="m 38.862012,109.03657 c 0.677335,0.84667 0.564446,1.58045 -0.36689,2.17312 -0.790225,0 -1.382893,-0.25401 -1.72156,-0.79023 l -2.906897,-4.06401 -2.991564,4.26157 c -0.36689,0.42333 -0.846669,0.62089 -1.439337,0.62089 -1.016003,0.0564 -1.411115,-0.33867 -1.185337,-1.12889 l 4.148678,-5.78558 -4.487346,-5.785567 c 0.282223,-1.016003 1.072448,-1.270003 2.342451,-0.790224 l 3.612455,4.515571 2.935119,-4.37446 c 0.197556,-0.310445 0.536224,-0.479779 0.98778,-0.479779 0.451557,0 0.818447,0.112889 1.10067,0.282223 0.254001,0.197556 0.395112,0.395112 0.395112,0.620891 0,0.282223 -1.326448,2.286005 -3.979344,5.954905 z"
     id="text2"
     style="font-size:28.2223px;font-family:'APL386 Unicode';-inkscape-font-specification:'APL386 Unicode';stroke-width:2.11667"
     aria-label="x" />
  <path
     d="m 107.18801,98.227428 c 0,0.112889 -0.50801,1.439337 -1.49579,4.035792 l -3.47134,9.08758 c -0.16933,0.45155 -0.31044,0.84667 -0.45156,1.21356 -0.14111,0.36689 -0.39511,0.98778 -0.79022,1.89089 -0.39511,0.90311 -0.79022,1.38289 -1.157114,1.43934 -0.169334,0.0282 -0.310446,0 -0.479779,-0.0564 -0.169334,-0.0564 -0.395113,-0.14111 -0.649113,-0.28222 -0.282223,-0.14111 -0.451557,-0.28222 -0.536224,-0.45156 -0.112889,-0.14111 -0.141111,-0.31044 -0.141111,-0.47978 0,-0.22577 0.705557,-2.08845 2.144891,-5.64446 -2.765782,-7.05557 -4.148675,-10.72447 -4.148675,-11.034915 0,-0.310445 0.395113,-0.479779 1.185337,-0.479779 0.959558,0 1.552226,0.254 1.778005,0.762002 l 2.737563,7.366022 2.62467,-7.309578 c 0.16934,-0.508001 0.62089,-0.762002 1.32645,-0.762002 1.016,0 1.52401,0.254001 1.52401,0.705558 z"
     id="text2-3"
     style="font-size:28.2223px;font-family:'APL386 Unicode';-inkscape-font-specification:'APL386 Unicode';stroke-width:2.11667"
     aria-label="y" />
</svg>
