<?xml version="1.0" encoding="UTF-8" standalone="no"?>
<!-- Created with Inkscape (http://www.inkscape.org/) -->

<svg
   width="512"
   height="512"
   viewBox="0 0 135.46666 135.46667"
   version="1.1"
   id="svg1"
   sodipodi:docname="swap.svg"
   inkscape:version="1.3 (0e150ed, 2023-07-21)"
   xmlns:inkscape="http://www.inkscape.org/namespaces/inkscape"
   xmlns:sodipodi="http://sodipodi.sourceforge.net/DTD/sodipodi-0.dtd"
   xmlns="http://www.w3.org/2000/svg"
   xmlns:svg="http://www.w3.org/2000/svg">
  <sodipodi:namedview
     id="namedview1"
     pagecolor="#ffffff"
     bordercolor="#000000"
     borderopacity="0.25"
     inkscape:showpageshadow="2"
     inkscape:pageopacity="0.0"
     inkscape:pagecheckerboard="0"
     inkscape:deskcolor="#d1d1d1"
     inkscape:document-units="px"
     showguides="true"
     inkscape:zoom="0.9763358"
     inkscape:cx="235.06257"
     inkscape:cy="266.81394"
     inkscape:window-width="1400"
     inkscape:window-height="775"
     inkscape:window-x="26"
     inkscape:window-y="23"
     inkscape:window-maximized="0"
     inkscape:current-layer="svg1">
    <sodipodi:guide
       position="0,135.46666"
       orientation="127.99999,0"
       id="guide64"
       inkscape:locked="false" />
    <sodipodi:guide
       position="0,101.6"
       orientation="0,127.99999"
       id="guide65"
       inkscape:locked="false" />
    <sodipodi:guide
       position="33.866665,101.6"
       orientation="-127.99999,0"
       id="guide66"
       inkscape:locked="false" />
    <sodipodi:guide
       position="33.866665,135.46666"
       orientation="0,-127.99999"
       id="guide67"
       inkscape:locked="false" />
    <sodipodi:guide
       position="33.866661,101.6"
       orientation="127.99999,0"
       id="guide68"
       inkscape:locked="false" />
    <sodipodi:guide
       position="33.866661,67.733335"
       orientation="0,127.99998"
       id="guide69"
       inkscape:locked="false" />
    <sodipodi:guide
       position="67.733322,67.733335"
       orientation="-127.99999,0"
       id="guide70"
       inkscape:locked="false" />
    <sodipodi:guide
       position="67.733322,101.6"
       orientation="0,-127.99998"
       id="guide71"
       inkscape:locked="false" />
    <sodipodi:guide
       position="67.73333,67.733335"
       orientation="127.99998,0"
       id="guide72"
       inkscape:locked="false" />
    <sodipodi:guide
       position="67.73333,33.866674"
       orientation="0,127.99998"
       id="guide73"
       inkscape:locked="false" />
    <sodipodi:guide
       position="101.59999,33.866674"
       orientation="-127.99998,0"
       id="guide74"
       inkscape:locked="false" />
    <sodipodi:guide
       position="101.59999,67.733335"
       orientation="0,-127.99998"
       id="guide75"
       inkscape:locked="false" />
    <sodipodi:guide
       position="101.59999,33.866674"
       orientation="128.00001,0"
       id="guide76"
       inkscape:locked="false" />
    <sodipodi:guide
       position="101.59999,5.4541014e-06"
       orientation="0,128.00001"
       id="guide77"
       inkscape:locked="false" />
    <sodipodi:guide
       position="135.46666,5.4541014e-06"
       orientation="-128.00001,0"
       id="guide78"
       inkscape:locked="false" />
    <sodipodi:guide
       position="135.46666,33.866674"
       orientation="0,-128.00001"
       id="guide79"
       inkscape:locked="false" />
    <sodipodi:guide
       position="0,118.53333"
       orientation="0,1"
       id="guide81"
       inkscape:locked="false"
       inkscape:label=""
       inkscape:color="rgb(0,134,229)" />
    <sodipodi:guide
       position="0,84.666666"
       orientation="0,1"
       id="guide82"
       inkscape:locked="false"
       inkscape:label=""
       inkscape:color="rgb(0,134,229)" />
    <sodipodi:guide
       position="0,50.799999"
       orientation="0,1"
       id="guide83"
       inkscape:locked="false"
       inkscape:label=""
       inkscape:color="rgb(0,134,229)" />
    <sodipodi:guide
       position="0,16.933333"
       orientation="0,1"
       id="guide84"
       inkscape:locked="false"
       inkscape:label=""
       inkscape:color="rgb(0,134,229)" />
    <sodipodi:guide
       position="16.933333,135.46666"
       orientation="-1,0"
       id="guide85"
       inkscape:locked="false"
       inkscape:label=""
       inkscape:color="rgb(0,134,229)" />
    <sodipodi:guide
       position="50.799999,135.46666"
       orientation="-1,0"
       id="guide86"
       inkscape:locked="false"
       inkscape:label=""
       inkscape:color="rgb(0,134,229)" />
    <sodipodi:guide
       position="84.666666,135.46666"
       orientation="-1,0"
       id="guide87"
       inkscape:locked="false"
       inkscape:label=""
       inkscape:color="rgb(0,134,229)" />
    <sodipodi:guide
       position="118.53333,135.46666"
       orientation="-1,0"
       id="guide88"
       inkscape:locked="false"
       inkscape:label=""
       inkscape:color="rgb(0,134,229)" />
  </sodipodi:namedview>
  <defs
     id="defs1" />
  <g
     inkscape:groupmode="layer"
     id="layer2"
     inkscape:label="diagram" />
  <path
     d="m 65.023989,26.853425 v 5.164681 h 4.261567 c 0.338668,0 0.620891,0.112889 0.846669,0.36689 0.225778,0.282223 0.338668,0.592668 0.338668,0.931336 0,0.762002 -0.395113,1.157114 -1.185337,1.157114 h -4.261567 c 0.02822,2.596452 0.02822,4.600235 0.02822,5.954905 -0.02822,1.382893 -0.02822,2.088451 -0.02822,2.116673 0,0.508001 -0.141112,0.818447 -0.36689,0.98778 -0.225778,0.169334 -0.536224,0.254001 -0.931336,0.254001 -0.395112,0 -0.677335,-0.112889 -0.874891,-0.395112 -0.197556,-0.282223 -0.282223,-0.564446 -0.282223,-0.903114 V 26.853425 c 0,-1.636893 0.790224,-2.45534 2.370673,-2.45534 h 6.604018 c 0.36689,0 0.677335,0.141112 0.931336,0.36689 0.254001,0.254001 0.395112,0.564446 0.395112,0.903114 0,0.790224 -0.451557,1.185336 -1.326448,1.185336 z"
     id="text81"
     style="font-size:28.2223px;font-family:'APL386 Unicode';-inkscape-font-specification:'APL386 Unicode';fill:#1a1a1a;stroke-width:0.264583"
     aria-label="F" />
  <path
     style="fill:none;fill-opacity:1;stroke:#000000;stroke-width:2.11667;stroke-dasharray:none;stroke-opacity:1"
     d="m 59.266671,33.866666 c 0,0 -16.93333,3e-6 -16.933333,16.933333 -5e-6,16.933331 16.933333,33.866667 16.933333,33.866667 0,0 16.933344,16.933324 33.866667,16.933324"
     id="path88" />
  <path
     style="fill:none;fill-opacity:1;stroke:#000000;stroke-width:2.11667;stroke-dasharray:none;stroke-opacity:1"
     d="m 75.141663,33.866666 c 0,0 16.93333,3e-6 16.93334,16.933333 0,16.933331 -16.93334,33.866667 -16.93334,33.866667 0,0 -16.93334,16.933324 -33.86666,16.933324"
     id="path88-4" />
  <path
     d="m 107.18801,98.227428 c 0,0.112889 -0.50801,1.439337 -1.49579,4.035792 l -3.47134,9.08758 c -0.16933,0.45155 -0.31044,0.84667 -0.45156,1.21356 -0.14111,0.36689 -0.39511,0.98778 -0.79022,1.89089 -0.39511,0.90311 -0.79022,1.38289 -1.157114,1.43934 -0.169334,0.0282 -0.310446,0 -0.479779,-0.0564 -0.169334,-0.0564 -0.395113,-0.14111 -0.649113,-0.28222 -0.282223,-0.14111 -0.451557,-0.28222 -0.536224,-0.45156 -0.112889,-0.14111 -0.141111,-0.31044 -0.141111,-0.47978 0,-0.22577 0.705557,-2.08845 2.144891,-5.64446 -2.765782,-7.05557 -4.148675,-10.72447 -4.148675,-11.034915 0,-0.310445 0.395113,-0.479779 1.185337,-0.479779 0.959558,0 1.552226,0.254 1.778005,0.762002 l 2.737563,7.366022 2.62467,-7.309578 c 0.16934,-0.508001 0.62089,-0.762002 1.32645,-0.762002 1.016,0 1.52401,0.254001 1.52401,0.705558 z"
     id="text1"
     style="font-size:28.2223px;font-family:'APL386 Unicode';-inkscape-font-specification:'APL386 Unicode';fill:#1a1a1a;stroke-width:2.11667"
     aria-label="y" />
  <text
     xml:space="preserve"
     style="font-size:28.2223px;font-family:'APL386 Unicode';-inkscape-font-specification:'APL386 Unicode';fill:#1a1a1a;stroke-width:2.11667"
     x="33.866665"
     y="101.59999"
     id="text2"><tspan
       sodipodi:role="line"
       id="tspan2"
       style="stroke-width:2.11667"></tspan></text>
  <path
     d="m 38.862012,109.03657 c 0.677335,0.84667 0.564446,1.58045 -0.36689,2.17312 -0.790225,0 -1.382893,-0.25401 -1.72156,-0.79023 l -2.906897,-4.06401 -2.991564,4.26157 c -0.36689,0.42333 -0.846669,0.62089 -1.439337,0.62089 -1.016003,0.0564 -1.411115,-0.33867 -1.185337,-1.12889 l 4.148678,-5.78558 -4.487346,-5.785567 c 0.282223,-1.016003 1.072448,-1.270003 2.342451,-0.790224 l 3.612455,4.515571 2.935119,-4.37446 c 0.197556,-0.310445 0.536224,-0.479779 0.98778,-0.479779 0.451557,0 0.818447,0.112889 1.10067,0.282223 0.254001,0.197556 0.395112,0.395112 0.395112,0.620891 0,0.282223 -1.326448,2.286005 -3.979344,5.954905 z"
     id="text1-9"
     style="font-size:28.2223px;font-family:'APL386 Unicode';-inkscape-font-specification:'APL386 Unicode';fill:#1a1a1a;stroke-width:2.11667"
     aria-label="x" />
</svg>
