<?xml version="1.0" encoding="UTF-8" standalone="no"?>
<!-- Created with Inkscape (http://www.inkscape.org/) -->

<svg
   width="512"
   height="512"
   viewBox="0 0 135.46666 135.46667"
   version="1.1"
   id="svg1"
   sodipodi:docname="compose.svg"
   inkscape:version="1.3 (0e150ed, 2023-07-21)"
   xmlns:inkscape="http://www.inkscape.org/namespaces/inkscape"
   xmlns:sodipodi="http://sodipodi.sourceforge.net/DTD/sodipodi-0.dtd"
   xmlns="http://www.w3.org/2000/svg"
   xmlns:svg="http://www.w3.org/2000/svg">
  <sodipodi:namedview
     id="namedview1"
     pagecolor="#ffffff"
     bordercolor="#000000"
     borderopacity="0.25"
     inkscape:showpageshadow="2"
     inkscape:pageopacity="0.0"
     inkscape:pagecheckerboard="0"
     inkscape:deskcolor="#d1d1d1"
     inkscape:document-units="px"
     showguides="true"
     inkscape:zoom="0.81260981"
     inkscape:cx="240.58287"
     inkscape:cy="374.71859"
     inkscape:window-width="1400"
     inkscape:window-height="775"
     inkscape:window-x="26"
     inkscape:window-y="23"
     inkscape:window-maximized="0"
     inkscape:current-layer="svg1">
    <sodipodi:guide
       position="0,135.46666"
       orientation="127.99999,0"
       id="guide64"
       inkscape:locked="false" />
    <sodipodi:guide
       position="0,101.6"
       orientation="0,127.99999"
       id="guide65"
       inkscape:locked="false" />
    <sodipodi:guide
       position="33.866665,101.6"
       orientation="-127.99999,0"
       id="guide66"
       inkscape:locked="false" />
    <sodipodi:guide
       position="33.866665,135.46666"
       orientation="0,-127.99999"
       id="guide67"
       inkscape:locked="false" />
    <sodipodi:guide
       position="33.866661,101.6"
       orientation="127.99999,0"
       id="guide68"
       inkscape:locked="false" />
    <sodipodi:guide
       position="33.866661,67.733335"
       orientation="0,127.99998"
       id="guide69"
       inkscape:locked="false" />
    <sodipodi:guide
       position="67.733322,67.733335"
       orientation="-127.99999,0"
       id="guide70"
       inkscape:locked="false" />
    <sodipodi:guide
       position="67.733322,101.6"
       orientation="0,-127.99998"
       id="guide71"
       inkscape:locked="false" />
    <sodipodi:guide
       position="67.73333,67.733335"
       orientation="127.99998,0"
       id="guide72"
       inkscape:locked="false" />
    <sodipodi:guide
       position="67.73333,33.866674"
       orientation="0,127.99998"
       id="guide73"
       inkscape:locked="false" />
    <sodipodi:guide
       position="101.59999,33.866674"
       orientation="-127.99998,0"
       id="guide74"
       inkscape:locked="false" />
    <sodipodi:guide
       position="101.59999,67.733335"
       orientation="0,-127.99998"
       id="guide75"
       inkscape:locked="false" />
    <sodipodi:guide
       position="101.59999,33.866674"
       orientation="128.00001,0"
       id="guide76"
       inkscape:locked="false" />
    <sodipodi:guide
       position="101.59999,5.4541014e-06"
       orientation="0,128.00001"
       id="guide77"
       inkscape:locked="false" />
    <sodipodi:guide
       position="135.46666,5.4541014e-06"
       orientation="-128.00001,0"
       id="guide78"
       inkscape:locked="false" />
    <sodipodi:guide
       position="135.46666,33.866674"
       orientation="0,-128.00001"
       id="guide79"
       inkscape:locked="false" />
    <sodipodi:guide
       position="0,118.53333"
       orientation="0,1"
       id="guide81"
       inkscape:locked="false"
       inkscape:label=""
       inkscape:color="rgb(0,134,229)" />
    <sodipodi:guide
       position="0,84.666666"
       orientation="0,1"
       id="guide82"
       inkscape:locked="false"
       inkscape:label=""
       inkscape:color="rgb(0,134,229)" />
    <sodipodi:guide
       position="0,50.799999"
       orientation="0,1"
       id="guide83"
       inkscape:locked="false"
       inkscape:label=""
       inkscape:color="rgb(0,134,229)" />
    <sodipodi:guide
       position="0,16.933333"
       orientation="0,1"
       id="guide84"
       inkscape:locked="false"
       inkscape:label=""
       inkscape:color="rgb(0,134,229)" />
    <sodipodi:guide
       position="16.933333,135.46666"
       orientation="-1,0"
       id="guide85"
       inkscape:locked="false"
       inkscape:label=""
       inkscape:color="rgb(0,134,229)" />
    <sodipodi:guide
       position="50.799999,135.46666"
       orientation="-1,0"
       id="guide86"
       inkscape:locked="false"
       inkscape:label=""
       inkscape:color="rgb(0,134,229)" />
    <sodipodi:guide
       position="84.666666,135.46666"
       orientation="-1,0"
       id="guide87"
       inkscape:locked="false"
       inkscape:label=""
       inkscape:color="rgb(0,134,229)" />
    <sodipodi:guide
       position="118.53333,135.46666"
       orientation="-1,0"
       id="guide88"
       inkscape:locked="false"
       inkscape:label=""
       inkscape:color="rgb(0,134,229)" />
  </sodipodi:namedview>
  <defs
     id="defs1" />
  <g
     inkscape:groupmode="layer"
     id="layer2"
     inkscape:label="diagram" />
  <path
     d="m 65.023989,9.9200928 v 5.1646812 h 4.261567 c 0.338668,0 0.620891,0.112889 0.846669,0.36689 0.225778,0.282223 0.338668,0.592668 0.338668,0.931335 0,0.762003 -0.395113,1.157115 -1.185337,1.157115 h -4.261567 c 0.02822,2.596451 0.02822,4.600235 0.02822,5.954905 -0.02822,1.382893 -0.02822,2.08845 -0.02822,2.116672 0,0.508002 -0.141112,0.818447 -0.36689,0.987781 -0.225778,0.169334 -0.536224,0.254001 -0.931336,0.254001 -0.395112,0 -0.677335,-0.11289 -0.874891,-0.395113 -0.197556,-0.282223 -0.282223,-0.564446 -0.282223,-0.903113 V 9.9200928 c 0,-1.6368934 0.790224,-2.45534 2.370673,-2.45534 h 6.604018 c 0.36689,0 0.677335,0.1411114 0.931336,0.3668898 0.254001,0.2540007 0.395112,0.564446 0.395112,0.9031136 0,0.7902244 -0.451557,1.1853366 -1.326448,1.1853366 z"
     id="text81"
     style="font-size:28.2223px;font-family:'APL386 Unicode';-inkscape-font-specification:'APL386 Unicode';fill:#1a1a1a;stroke-width:0.264583"
     aria-label="F" />
  <path
     d="m 67.916776,58.137752 c 2.229562,0 3.866455,0.508001 4.882458,1.467559 0.141112,0.169334 0.310445,0.338668 0.479779,0.508002 0.169334,0.197556 0.395112,0.423334 0.620891,0.677335 0.225778,0.254001 0.338667,0.564446 0.338667,0.959558 -0.225778,0.677335 -0.649113,1.072448 -1.270003,1.128892 -0.282223,0 -0.536224,-0.08467 -0.705558,-0.282223 l -0.451556,-0.451557 c -0.11289,-0.112889 -0.310446,-0.254 -0.536224,-0.451556 -0.225778,-0.197557 -0.536224,-0.395113 -0.874891,-0.592669 -0.36689,-0.169334 -0.705558,-0.310445 -1.016003,-0.423334 -0.310445,-0.08467 -0.592668,-0.141112 -0.818447,-0.141112 -0.36689,0 -0.705557,0.05644 -1.044225,0.141112 -0.338668,0.08467 -0.677335,0.197556 -1.016003,0.36689 -0.338667,0.169333 -0.677335,0.36689 -0.959558,0.592668 -0.310445,0.225778 -0.564446,0.508001 -0.762002,0.790224 -0.846669,1.524005 -1.270003,3.330232 -1.270003,5.418682 0,0.959558 0.197556,2.060228 0.592668,3.330231 0.395112,1.270004 1.10067,2.20134 2.08845,2.82223 0.846669,0.564446 1.749783,0.818447 2.652896,0.818447 0.112889,0 0.225779,0 0.338668,0 0.112889,0 0.310445,-0.05644 0.649113,-0.112889 0.310445,-0.05644 0.705557,-0.254001 1.185336,-0.592669 0.36689,-0.225778 0.649113,-0.592668 0.818447,-1.100669 0.169334,-0.508002 0.282223,-0.903114 0.282223,-1.213559 0,-0.282223 -0.02822,-0.479779 -0.02822,-0.592669 h -2.794008 c -0.36689,0 -0.592668,-0.395112 -0.649113,-1.185336 0,-0.395112 0.02822,-0.705558 0.112889,-0.931336 0.05644,-0.225778 0.254001,-0.338668 0.536224,-0.338668 h 4.459123 c 0.338668,0 0.592669,0.282223 0.705558,0.846669 0.05644,0.338668 0.05644,0.931336 0.05644,1.778005 -0.05644,0.846669 -0.112889,1.495782 -0.169333,1.947339 -0.08467,0.451557 -0.169334,0.762002 -0.254001,0.903114 -0.225779,0.508001 -0.423335,0.931335 -0.620891,1.270003 -0.225778,0.338668 -0.592668,0.649113 -1.128892,0.959558 -0.451556,0.310446 -0.903113,0.508002 -1.326448,0.620891 -0.423334,0.112889 -0.818446,0.169334 -1.185336,0.197556 -0.395113,0.02822 -0.818447,0.05645 -1.298226,0.05645 -2.08845,0 -3.894677,-0.790225 -5.390459,-2.427118 -0.677336,-0.790225 -1.213559,-1.83445 -1.608671,-3.104453 -0.395113,-1.241781 -0.592669,-2.511785 -0.592669,-3.753566 0,-1.128892 0.141112,-2.342451 0.423335,-3.612454 0.282223,-1.270004 0.677335,-2.342451 1.241781,-3.217343 0.564446,-0.903113 1.326448,-1.665115 2.342451,-2.229561 1.016003,-0.564446 2.003783,-0.846669 2.963341,-0.846669 z"
     id="text81-5"
     style="font-size:28.2223px;font-family:'APL386 Unicode';-inkscape-font-specification:'APL386 Unicode';fill:#1a1a1a;stroke-width:0.264583"
     aria-label="G" />
  <text
     xml:space="preserve"
     style="font-size:28.2223px;font-family:'APL386 Unicode';-inkscape-font-specification:'APL386 Unicode';fill:none;fill-opacity:1;stroke:#000000;stroke-width:2.11667;stroke-dasharray:none;stroke-opacity:1"
     x="152.64636"
     y="92.074966"
     id="text88"><tspan
       sodipodi:role="line"
       id="tspan88"
       style="stroke-width:2.11667" /></text>
  <path
     style="fill:none;fill-opacity:1;stroke:#000000;stroke-width:2.11667;stroke-dasharray:none;stroke-opacity:1"
     d="M 67.733322,50.800001 V 33.866665"
     id="path88" />
  <path
     style="fill:none;fill-opacity:1;stroke:#000000;stroke-width:2.11667;stroke-dasharray:none;stroke-opacity:1"
     d="M 67.73333,101.6 V 84.666666"
     id="path88-8" />
  <path
     d="m 73.321337,115.16076 c 0,0.11289 -0.508001,1.43934 -1.495782,4.03579 l -3.471342,9.08758 c -0.169334,0.45156 -0.310446,0.84667 -0.451557,1.21356 -0.141112,0.36689 -0.395112,0.98778 -0.790225,1.89089 -0.395112,0.90312 -0.790224,1.3829 -1.157114,1.43934 -0.169334,0.0282 -0.310445,0 -0.479779,-0.0564 -0.169334,-0.0564 -0.395112,-0.14111 -0.649113,-0.28223 -0.282223,-0.14111 -0.451557,-0.28222 -0.536224,-0.45155 -0.112889,-0.14111 -0.141111,-0.31045 -0.141111,-0.47978 0,-0.22578 0.705557,-2.08845 2.144895,-5.64446 -2.765786,-7.05558 -4.148678,-10.72448 -4.148678,-11.03492 0,-0.31045 0.395112,-0.47978 1.185336,-0.47978 0.959558,0 1.552227,0.254 1.778005,0.762 l 2.737563,7.36602 2.624674,-7.30957 c 0.169334,-0.508 0.620891,-0.76201 1.326448,-0.76201 1.016003,0 1.524004,0.25401 1.524004,0.70556 z"
     id="text2"
     style="font-size:28.2223px;font-family:'APL386 Unicode';-inkscape-font-specification:'APL386 Unicode';stroke-width:2.11667"
     aria-label="y" />
</svg>
