<?xml version="1.0" encoding="UTF-8" standalone="no"?>
<!-- Created with Inkscape (http://www.inkscape.org/) -->

<svg
   width="512"
   height="512"
   viewBox="0 0 135.46666 135.46667"
   version="1.1"
   id="svg1"
   inkscape:version="1.3 (0e150ed, 2023-07-21)"
   sodipodi:docname="constant_2.svg"
   xmlns:inkscape="http://www.inkscape.org/namespaces/inkscape"
   xmlns:sodipodi="http://sodipodi.sourceforge.net/DTD/sodipodi-0.dtd"
   xmlns="http://www.w3.org/2000/svg"
   xmlns:svg="http://www.w3.org/2000/svg">
  <sodipodi:namedview
     id="namedview1"
     pagecolor="#ffffff"
     bordercolor="#000000"
     borderopacity="0.25"
     inkscape:showpageshadow="2"
     inkscape:pageopacity="0.0"
     inkscape:pagecheckerboard="0"
     inkscape:deskcolor="#d1d1d1"
     inkscape:document-units="px"
     showguides="true"
     inkscape:zoom="0.94977675"
     inkscape:cx="310.07287"
     inkscape:cy="217.41951"
     inkscape:window-width="1400"
     inkscape:window-height="775"
     inkscape:window-x="26"
     inkscape:window-y="23"
     inkscape:window-maximized="0"
     inkscape:current-layer="svg1">
    <sodipodi:guide
       position="0,135.46666"
       orientation="127.99999,0"
       id="guide64"
       inkscape:locked="false" />
    <sodipodi:guide
       position="0,101.6"
       orientation="0,127.99999"
       id="guide65"
       inkscape:locked="false" />
    <sodipodi:guide
       position="33.866665,101.6"
       orientation="-127.99999,0"
       id="guide66"
       inkscape:locked="false" />
    <sodipodi:guide
       position="33.866665,135.46666"
       orientation="0,-127.99999"
       id="guide67"
       inkscape:locked="false" />
    <sodipodi:guide
       position="33.866661,101.6"
       orientation="127.99999,0"
       id="guide68"
       inkscape:locked="false" />
    <sodipodi:guide
       position="33.866661,67.733335"
       orientation="0,127.99998"
       id="guide69"
       inkscape:locked="false" />
    <sodipodi:guide
       position="67.733322,67.733335"
       orientation="-127.99999,0"
       id="guide70"
       inkscape:locked="false" />
    <sodipodi:guide
       position="67.733322,101.6"
       orientation="0,-127.99998"
       id="guide71"
       inkscape:locked="false" />
    <sodipodi:guide
       position="67.73333,67.733335"
       orientation="127.99998,0"
       id="guide72"
       inkscape:locked="false" />
    <sodipodi:guide
       position="67.73333,33.866674"
       orientation="0,127.99998"
       id="guide73"
       inkscape:locked="false" />
    <sodipodi:guide
       position="101.59999,33.866674"
       orientation="-127.99998,0"
       id="guide74"
       inkscape:locked="false" />
    <sodipodi:guide
       position="101.59999,67.733335"
       orientation="0,-127.99998"
       id="guide75"
       inkscape:locked="false" />
    <sodipodi:guide
       position="101.59999,33.866674"
       orientation="128.00001,0"
       id="guide76"
       inkscape:locked="false" />
    <sodipodi:guide
       position="101.59999,5.4541014e-06"
       orientation="0,128.00001"
       id="guide77"
       inkscape:locked="false" />
    <sodipodi:guide
       position="135.46666,5.4541014e-06"
       orientation="-128.00001,0"
       id="guide78"
       inkscape:locked="false" />
    <sodipodi:guide
       position="135.46666,33.866674"
       orientation="0,-128.00001"
       id="guide79"
       inkscape:locked="false" />
    <sodipodi:guide
       position="0,118.53333"
       orientation="0,1"
       id="guide81"
       inkscape:locked="false"
       inkscape:label=""
       inkscape:color="rgb(0,134,229)" />
    <sodipodi:guide
       position="0,84.666666"
       orientation="0,1"
       id="guide82"
       inkscape:locked="false"
       inkscape:label=""
       inkscape:color="rgb(0,134,229)" />
    <sodipodi:guide
       position="0,50.799999"
       orientation="0,1"
       id="guide83"
       inkscape:locked="false"
       inkscape:label=""
       inkscape:color="rgb(0,134,229)" />
    <sodipodi:guide
       position="0,16.933333"
       orientation="0,1"
       id="guide84"
       inkscape:locked="false"
       inkscape:label=""
       inkscape:color="rgb(0,134,229)" />
  </sodipodi:namedview>
  <defs
     id="defs1" />
  <g
     inkscape:groupmode="layer"
     id="layer2"
     inkscape:label="diagram" />
  <path
     d="m 72.27712,94.332804 c -0.846669,0 -1.270004,-0.282223 -1.270004,-0.903114 v -8.043355 c 0,-0.874892 -0.169333,-1.495782 -0.508001,-1.890894 -0.36689,-0.395113 -0.987781,-0.620891 -1.83445,-0.620891 -0.959558,0 -1.919116,0.395112 -2.822229,1.128892 -0.959559,0.790224 -1.439338,1.636893 -1.439338,2.568229 v 6.74513 c 0,0.73378 -0.395112,1.072447 -1.185336,1.072447 -0.310446,0 -0.592669,-0.08467 -0.874892,-0.310445 -0.282223,-0.225779 -0.395112,-0.479779 -0.395112,-0.790225 V 81.689213 c 0,-0.310445 0.169334,-0.592668 0.508002,-0.874891 0.282223,-0.225778 0.62089,-0.338668 0.959558,-0.338668 0.395112,0 0.705557,0.225779 0.903113,0.620891 l 0.169334,0.564446 c 0.05645,0.197556 0.112889,0.395112 0.197556,0.564446 v -0.02822 c 0.225779,-0.338668 0.818447,-0.705558 1.778005,-1.10067 0.903114,-0.36689 1.580449,-0.564446 2.032006,-0.564446 1.778005,0 3.07623,0.451557 3.922899,1.35467 0.73378,0.846669 1.10067,2.173117 1.10067,4.007567 v 7.535354 c 0,0.620891 -0.423334,0.903114 -1.241781,0.903114 z"
     id="text81"
     style="font-size:28.2223px;font-family:'APL386 Unicode';-inkscape-font-specification:'APL386 Unicode';fill:#1a1a1a;stroke-width:0.264583"
     aria-label="n" />
  <path
     style="fill:#1a1a1a;stroke-width:2.11666664;stroke-dasharray:none;stroke:#000000;stroke-opacity:1"
     d="m 67.73333,67.73333 v -50.799995 0 0 z"
     id="path84" />
  <path
     d="m 38.862008,125.9699 c 0.677335,0.84667 0.564446,1.58045 -0.36689,2.17312 -0.790224,0 -1.382893,-0.254 -1.72156,-0.79022 l -2.906897,-4.06402 -2.991564,4.26157 c -0.36689,0.42334 -0.846669,0.62089 -1.439337,0.62089 -1.016003,0.0564 -1.411115,-0.33867 -1.185337,-1.12889 l 4.148678,-5.78557 -4.487345,-5.78557 c 0.282223,-1.01601 1.072447,-1.27001 2.342451,-0.79023 l 3.612454,4.51557 2.935119,-4.37446 c 0.197556,-0.31044 0.536224,-0.47977 0.987781,-0.47977 0.451556,0 0.818446,0.11288 1.100669,0.28222 0.254001,0.19755 0.395112,0.39511 0.395112,0.62089 0,0.28222 -1.326448,2.28601 -3.979344,5.9549 z"
     id="text2"
     style="font-size:28.2223px;font-family:'APL386 Unicode';-inkscape-font-specification:'APL386 Unicode';stroke-width:2.11667"
     aria-label="x" />
  <g
     id="g1"
     transform="translate(42.333301,33.320821)">
    <path
       d="m 64.854704,81.839946 c 0,0.112889 -0.508001,1.439337 -1.495781,4.035789 l -3.471343,9.08758 c -0.169334,0.451557 -0.310446,0.846669 -0.451557,1.213559 -0.141112,0.36689 -0.395112,0.987781 -0.790224,1.890894 -0.395113,0.903114 -0.790225,1.382893 -1.157115,1.439338 -0.169334,0.02822 -0.310445,0 -0.479779,-0.05644 -0.169334,-0.05644 -0.395112,-0.141111 -0.649113,-0.282223 -0.282223,-0.141111 -0.451557,-0.282223 -0.536223,-0.451557 -0.11289,-0.141111 -0.141112,-0.310445 -0.141112,-0.479779 0,-0.225778 0.705558,-2.08845 2.144895,-5.64446 -2.765786,-7.055575 -4.148678,-10.724474 -4.148678,-11.034919 0,-0.310445 0.395112,-0.479779 1.185336,-0.479779 0.959559,0 1.552227,0.254001 1.778005,0.762002 l 2.737563,7.36602 2.624674,-7.309575 c 0.169334,-0.508002 0.620891,-0.762002 1.326448,-0.762002 1.016003,0 1.524004,0.254 1.524004,0.705557 z"
       id="text2-2"
       style="font-size:28.2223px;font-family:'APL386 Unicode';-inkscape-font-specification:'APL386 Unicode';stroke-width:2.11667"
       aria-label="y" />
  </g>
</svg>
