<?xml version="1.0" encoding="UTF-8" standalone="no"?>
<!-- Created with Inkscape (http://www.inkscape.org/) -->

<svg
   width="1024"
   height="1024"
   viewBox="0 0 270.93333 270.93333"
   version="1.1"
   id="svg1"
   inkscape:version="1.3.2 (091e20e, 2023-11-25, custom)"
   sodipodi:docname="logo.svg"
   inkscape:export-filename="logo.png"
   inkscape:export-xdpi="96"
   inkscape:export-ydpi="96"
   xmlns:inkscape="http://www.inkscape.org/namespaces/inkscape"
   xmlns:sodipodi="http://sodipodi.sourceforge.net/DTD/sodipodi-0.dtd"
   xmlns="http://www.w3.org/2000/svg"
   xmlns:svg="http://www.w3.org/2000/svg">
  <sodipodi:namedview
     id="namedview1"
     pagecolor="#ffffff"
     bordercolor="#000000"
     borderopacity="0.25"
     inkscape:showpageshadow="2"
     inkscape:pageopacity="0.0"
     inkscape:pagecheckerboard="0"
     inkscape:deskcolor="#d1d1d1"
     inkscape:document-units="mm"
     inkscape:zoom="0.39622482"
     inkscape:cx="490.88292"
     inkscape:cy="808.8842"
     inkscape:window-width="1920"
     inkscape:window-height="1051"
     inkscape:window-x="-9"
     inkscape:window-y="-9"
     inkscape:window-maximized="1"
     inkscape:current-layer="layer1" />
  <defs
     id="defs1" />
  <g
     inkscape:label="Layer 1"
     inkscape:groupmode="layer"
     id="layer1">
    <path
       d="m 142.52222,82.126706 c 0,-21.166649 5.36221,-36.124414 16.08665,-46.566628 l -10.15999,-9.595547 c -0.56445,0.564444 -2.54,2.539998 -3.10444,3.668886 -0.84667,0.846666 -2.25778,2.257776 -2.82222,3.386664 -8.46666,10.724435 -12.69999,24.835534 -12.69999,44.026629 v 13.264433 l -6.49111,-5.644439 C 115.71113,77.893376 106.68002,73.095602 93.415591,72.248936 H 84.66671 C 51.082294,74.506712 28.786757,103.29335 28.786757,136.03111 v 5.92666 c 0,24.83553 9.595547,54.75106 26.528866,72.53105 17.779986,18.62665 43.744408,30.47997 78.739937,30.47997 h 8.18443 c 2.54,0 4.79778,-0.28222 7.33778,-0.56444 42.61552,-3.95111 72.81327,-25.96443 84.94881,-60.95995 6.20889,-15.80443 7.62,-27.93998 7.62,-44.59108 v -5.92666 C 239.32436,106.11557 228.3177,86.360036 207.7155,77.328932 c -6.20889,-2.82222 -14.39333,-5.362218 -23.14221,-5.362218 h -2.54 c -14.11109,0 -25.96442,5.079996 -33.01997,12.69999 l -6.4911,7.337771 z m -8.18444,148.448764 c -50.517736,0 -79.868822,-25.6822 -88.335482,-68.29772 -1.41111,-6.49111 -2.257776,-13.26443 -2.257776,-20.88443 V 134.62 C 45.720076,107.80891 59.831175,89.182256 86.642264,86.360036 h 5.644439 c 22.577757,0 29.351087,17.779984 39.228857,30.762194 1.41111,1.97556 2.82222,4.51555 3.95111,6.77333 l 5.36221,-6.77333 c 10.72444,-13.82888 16.6511,-30.762194 41.20441,-30.762194 h 3.95111 c 24.55332,1.693332 44.02663,22.859984 44.02663,47.413294 v 7.61999 c 0,25.6822 -10.72443,54.18662 -30.76219,70.5555 -14.1111,11.00666 -34.14886,18.62665 -57.85551,18.62665 z m 1.69342,-42.05084 29.35108,-36.40664 -11.00665,-8.74888 -18.34443,22.85998 -18.62665,-23.1422 -11.00666,9.0311 z"
       id="text1"
       style="font-size:282.222px;font-family:'linja pona 4.9';-inkscape-font-specification:'linja pona 4.9, ';stroke-width:0.264583;fill:#94e044;fill-opacity:1"
       aria-label="kili+lili" />
    <rect
       style="fill:#ea0027;stroke-width:16.93333333;stroke-dasharray:none;stroke:#ea0027;stroke-opacity:1;stroke-linejoin:round"
       id="rect1"
       width="73.223625"
       height="142.28004"
       x="165.71274"
       y="95.928741" />
    <path
       d="m 182.97684,207.4509 v 23.61412 q 0,7.14377 -8.3344,7.14377 -2.97657,0 -5.95314,-1.98438 -2.97657,-1.98438 -2.97657,-5.15939 V 127.08351 q 0,-7.14377 4.36564,-13.49378 7.93752,-12.10472 23.81256,-16.27192 4.96095,-1.389066 8.33439,-1.389066 3.57189,0 5.7547,0.396876 14.48598,2.778132 21.23287,10.71565 6.74689,7.73908 7.14377,17.06567 0,9.72346 -5.7547,17.46255 -5.75471,7.54064 -15.47817,9.52502 11.31097,1.78594 18.2563,13.69222 5.55626,9.9219 5.55626,20.43912 0,1.5875 0,3.175 0,10.51722 -8.92971,17.26411 -8.73127,6.54845 -21.23286,6.54845 -0.39688,0.19844 -0.59532,0.19844 -12.30315,0 -25.20162,-4.96095 z m 9.72346,-50.80013 q -2.5797,0 -2.5797,-4.16719 0,-1.19063 0.19844,-2.5797 0.19844,-2.18282 1.78594,-4.36563 0.79376,-1.78595 2.18282,-2.18282 8.3344,-0.59532 16.07348,-4.36564 9.9219,-4.76251 9.9219,-14.0891 0,-4.76251 -3.77032,-7.73908 -4.56408,-4.1672 -11.90628,-4.1672 -0.79375,0 -1.78594,0 -1.58751,0.19844 -2.77814,0.39688 -1.19062,0 -1.5875,0 -8.53283,0 -12.70003,6.15158 -2.77813,3.37344 -2.77813,9.9219 v 60.32515 q 12.89847,6.15158 23.0188,6.15158 8.92971,0 12.70004,-2.97657 4.36563,-3.37345 4.36563,-9.72346 0,-2.97657 -0.79375,-5.55627 -3.17501,-10.12034 -15.08129,-16.47035 -6.54845,-3.37345 -14.48597,-4.56408 z"
       id="text2"
       style="font-size:198.438px;line-height:1.1;font-family:Uiua386;-inkscape-font-specification:Uiua386;text-align:center;text-anchor:middle;fill:#ffffff;stroke-width:0.264583"
       aria-label="β" />
  </g>
</svg>
